<svg width="281" height="281" viewBox="0 0 281 281" fill="none" xmlns="http://www.w3.org/2000/svg">
<circle r="11.5" transform="matrix(1 0 0 -1 11.5 269.5)" fill="#6CABFF"/>
<circle r="11.5" transform="matrix(1 0 0 -1 11.5 226.5)" fill="#6CABFF"/>
<circle r="11.5" transform="matrix(1 0 0 -1 54.5 269.5)" fill="#6CABFF"/>
<circle r="11.5" transform="matrix(1 0 0 -1 54.5 226.5)" fill="#6CABFF"/>
<circle r="11.5" transform="matrix(1 0 0 -1 97.5 269.5)" fill="#6CABFF"/>
<circle r="11.5" transform="matrix(1 0 0 -1 183.5 269.5)" fill="#6CABFF"/>
<circle r="11.5" transform="matrix(1 0 0 -1 269.5 269.5)" fill="#6CABFF"/>
<circle r="11.5" transform="matrix(1 0 0 -1 54.5 183.5)" fill="#6CABFF"/>
<circle r="11.5" transform="matrix(1 0 0 -1 140.5 183.5)" fill="#6CABFF"/>
<circle r="11.5" transform="matrix(1 0 0 -1 97.5 226.5)" fill="#6CABFF"/>
<circle r="11.5" transform="matrix(1 0 0 -1 183.5 226.5)" fill="#6CABFF"/>
<circle r="11.5" transform="matrix(1 0 0 -1 54.5 140.5)" fill="#6CABFF"/>
<circle r="11.5" transform="matrix(1 0 0 -1 54.5 97.5)" fill="#6CABFF"/>
<circle r="11.5" transform="matrix(1 0 0 -1 54.5 54.5)" fill="#6CABFF"/>
<circle r="11.5" transform="matrix(1 0 0 -1 140.5 140.5)" fill="#6CABFF"/>
<circle r="11.5" transform="matrix(1 0 0 -1 140.5 269.5)" fill="#6CABFF"/>
<circle r="11.5" transform="matrix(1 0 0 -1 226.5 269.5)" fill="#6CABFF"/>
<circle r="11.5" transform="matrix(1 0 0 -1 11.5 183.5)" fill="#6CABFF"/>
<circle r="11.5" transform="matrix(1 0 0 -1 97.5 183.5)" fill="#6CABFF"/>
<circle r="11.5" transform="matrix(1 0 0 -1 183.5 183.5)" fill="#6CABFF"/>
<circle r="11.5" transform="matrix(1 0 0 -1 140.5 226.5)" fill="#6CABFF"/>
<circle r="11.5" transform="matrix(1 0 0 -1 226.5 226.5)" fill="#6CABFF"/>
<circle r="11.5" transform="matrix(1 0 0 -1 11.5 140.5)" fill="#6CABFF"/>
<circle r="11.5" transform="matrix(1 0 0 -1 11.5 97.5)" fill="#6CABFF"/>
<circle r="11.5" transform="matrix(1 0 0 -1 11.5 54.5)" fill="#6CABFF"/>
<circle r="11.5" transform="matrix(1 0 0 -1 11.5 11.5)" fill="#6CABFF"/>
<circle r="11.5" transform="matrix(1 0 0 -1 97.5 140.5)" fill="#6CABFF"/>
<circle r="11.5" transform="matrix(1 0 0 -1 97.5 97.5)" fill="#6CABFF"/>
</svg>
